<?xml version="1.0" standalone="no"?>
<!DOCTYPE svg PUBLIC "-//W3C//DTD SVG 20010904//EN"
 "http://www.w3.org/TR/2001/REC-SVG-20010904/DTD/svg10.dtd">
<svg version="1.0" xmlns="http://www.w3.org/2000/svg"
 width="1500.000000pt" height="1500.000000pt" viewBox="0 0 1500.000000 1500.000000"
 preserveAspectRatio="xMidYMid meet">
<metadata>
Created by potrace 1.14, written by Peter Selinger 2001-2017
</metadata>
<g transform="translate(0.000000,1500.000000) scale(0.100000,-0.100000)"
fill="#000000" stroke="none">
<path d="M6705 13445 c-22 -6 -51 -17 -65 -24 -43 -23 -1630 -1612 -1652
-1656 -13 -24 -22 -63 -24 -98 -5 -113 -3 -116 361 -479 182 -181 685 -683
1119 -1116 l788 -787 -1119 -1115 c-1062 -1057 -1121 -1118 -1137 -1168 -21
-62 -17 -139 11 -196 10 -21 339 -357 826 -842 641 -638 819 -810 856 -827 59
-26 142 -26 202 0 47 22 217 189 2105 2073 537 536 1000 1002 1029 1035 99
114 213 300 264 433 10 26 21 56 26 67 10 25 9 22 39 130 41 150 50 226 51
400 0 125 -7 233 -19 290 -67 317 -185 564 -373 777 -30 35 -410 416 -844 848
-434 432 -1112 1108 -1506 1502 -566 565 -728 721 -764 737 -57 26 -123 32
-174 16z"/>
<path d="M5002 4298 c-190 -22 -367 -138 -449 -293 -132 -251 -61 -573 161
-729 93 -65 147 -87 271 -111 52 -9 181 -7 247 6 90 16 217 79 283 140 l55 52
-30 27 c-16 15 -47 42 -67 60 -20 19 -52 47 -70 64 l-34 29 -32 -30 c-59 -55
-88 -70 -167 -90 -25 -6 -110 -5 -144 3 -199 43 -291 311 -168 496 95 144 325
165 461 42 l51 -46 48 43 c26 24 49 45 52 48 3 4 26 25 52 48 l47 42 -59 54
c-56 52 -148 105 -220 126 -76 22 -196 30 -288 19z"/>
<path d="M6485 4298 c-176 -23 -316 -102 -411 -231 -73 -98 -102 -184 -108
-312 -6 -140 32 -262 118 -374 89 -116 212 -183 391 -216 39 -7 161 -7 211 0
70 11 168 45 229 82 62 37 148 117 178 165 75 119 92 181 91 328 0 124 -18
191 -78 289 -61 99 -136 164 -247 215 -114 52 -244 71 -374 54z m213 -278 c79
-34 151 -123 167 -205 9 -50 7 -140 -4 -183 -16 -56 -69 -131 -116 -163 -113
-77 -275 -65 -370 27 -52 51 -68 79 -85 153 -40 172 47 340 201 385 58 17 149
11 207 -14z"/>
<path d="M12177 4298 c-259 -34 -453 -204 -503 -442 -20 -97 -11 -238 20 -321
115 -303 442 -444 801 -346 82 23 235 97 235 114 1 23 1 392 1 422 l-1 30
-135 0 c-129 1 -135 0 -136 -20 -1 -11 -1 -80 -2 -153 l-1 -133 -50 -14 c-94
-27 -196 -20 -270 17 -168 86 -213 347 -86 492 116 131 330 137 475 12 17 -14
33 -26 36 -26 4 0 33 24 65 54 33 29 74 67 93 84 21 19 32 36 28 46 -8 21
-102 93 -156 120 -120 60 -270 83 -414 64z"/>
<path d="M2299 4282 c-14 -2 -14 -65 -9 -1044 l0 -58 155 0 155 0 0 145 c0
166 -14 147 109 146 42 0 67 -5 72 -13 4 -7 49 -73 99 -145 l91 -133 166 0
165 0 -17 28 c-10 15 -63 92 -117 170 -55 79 -98 145 -96 146 162 98 233 249
203 431 -28 172 -183 300 -389 321 -60 7 -559 12 -587 6z m576 -263 c17 -8 38
-21 47 -29 42 -38 57 -137 28 -190 -35 -66 -82 -84 -230 -85 l-115 0 -3 161
-2 162 122 -3 c78 -1 134 -7 153 -16z"/>
<path d="M7678 4279 c-8 -5 -14 -793 -9 -1072 l1 -28 313 2 c265 1 324 4 389
20 233 56 397 223 425 431 26 200 -22 361 -143 481 -89 88 -209 142 -359 163
-64 9 -604 11 -617 3z m601 -259 c83 -22 157 -85 188 -159 41 -98 21 -255 -43
-329 -30 -35 -98 -78 -144 -91 -8 -2 -79 -6 -157 -8 l-143 -5 0 300 c0 164 2
301 4 303 10 10 253 1 295 -11z"/>
<path d="M9292 4280 c-4 -3 -7 -251 -7 -553 l0 -547 156 0 156 0 -1 550 c0
489 -2 550 -16 551 -61 4 -283 3 -288 -1z"/>
<path d="M10135 4280 c-1 -3 -3 -251 -3 -552 l0 -548 153 0 153 0 0 286 c0
157 2 287 4 290 2 2 80 -89 174 -203 93 -113 174 -211 179 -217 6 -6 30 -36
55 -66 25 -30 52 -63 60 -72 12 -16 32 -18 142 -18 l128 0 1 28 c0 33 0 1029
0 1057 -1 19 -7 20 -139 18 -75 0 -144 -1 -152 -2 -13 -1 -15 -40 -14 -292 l0
-292 -25 30 c-14 16 -107 127 -206 248 -99 120 -191 230 -204 244 -13 14 -29
35 -37 45 -11 17 -27 19 -139 20 -70 1 -128 -1 -130 -4z"/>
<path d="M1976 2713 c-3 -3 1 -21 9 -39 8 -19 11 -34 8 -34 -3 0 -1 -6 4 -12
5 -7 23 -55 38 -106 29 -92 30 -93 60 -90 28 3 31 8 61 96 17 51 33 95 36 98
3 3 21 -40 39 -96 33 -100 33 -101 63 -98 28 3 31 8 67 113 51 154 55 174 32
170 -10 -2 -21 -4 -25 -4 -4 -1 -21 -46 -38 -101 -18 -55 -35 -100 -38 -100
-4 0 -20 43 -36 95 -30 98 -39 112 -68 112 -13 0 -27 -28 -54 -110 l-37 -110
-33 102 c-18 57 -35 105 -37 107 -7 8 -45 13 -51 7z"/>
<path d="M2550 2574 l0 -144 104 0 c95 0 104 2 109 20 6 22 8 22 -93 24 l-65
1 -3 38 -3 37 43 1 c89 2 93 3 93 24 0 18 -7 20 -66 20 l-65 0 -3 38 -2 37 81
0 c73 0 80 2 80 20 0 11 -3 20 -7 21 -5 1 -52 2 -105 4 l-98 2 0 -143z"/>
<path d="M2908 2711 c0 -3 -2 -68 -3 -143 l-2 -138 98 0 c87 0 101 2 123 23
38 33 43 71 14 100 -21 21 -23 27 -11 43 31 42 0 112 -51 115 -89 5 -166 5
-168 0z m169 -52 c17 -15 17 -34 -3 -50 -19 -16 -113 -20 -115 -5 -5 42 -2 62
10 67 21 8 93 0 108 -12z m1 -114 c15 -4 22 -13 22 -30 0 -33 -30 -47 -93 -43
l-52 3 0 35 c0 22 5 37 15 41 16 7 70 4 108 -6z"/>
<path d="M3490 2572 l0 -144 94 4 c128 5 175 39 182 130 7 103 -48 148 -186
153 l-90 2 0 -145z m180 83 c52 -27 57 -118 9 -157 -22 -19 -27 -20 -94 -22
l-40 -1 -3 98 -3 97 51 0 c28 0 64 -7 80 -15z"/>
<path d="M3910 2573 l0 -143 104 0 c58 0 107 4 110 8 2 4 1 14 -4 22 -7 11
-29 15 -82 15 l-73 0 -3 34 c-2 19 1 37 7 41 6 3 38 5 71 3 57 -3 60 -2 60 20
0 22 -4 23 -57 22 -68 -1 -83 7 -83 46 l0 29 75 0 c59 0 77 3 82 15 3 9 3 19
-1 22 -4 4 -51 7 -106 8 l-100 1 0 -143z"/>
<path d="M4230 2709 c0 -12 49 -128 86 -202 13 -27 24 -55 24 -63 0 -9 11 -14
30 -14 22 0 33 6 39 23 5 12 22 51 38 87 36 78 73 167 73 174 0 3 -10 4 -22 3
-25 -4 -30 -12 -86 -136 l-37 -84 -44 104 c-25 57 -45 105 -46 107 -7 9 -55
11 -55 1z"/>
<path d="M4644 2711 c-2 -2 -4 -67 -4 -143 l0 -138 111 0 c97 0 110 2 105 16
-3 9 -6 19 -6 23 0 5 -34 7 -75 5 -41 -1 -75 0 -76 4 -1 4 -2 23 -4 42 l-3 35
69 -1 c66 -2 69 -1 69 21 0 22 -3 23 -68 21 l-69 -2 0 38 0 38 79 0 c74 0 78
1 78 23 0 22 -3 22 -101 22 -55 1 -102 -1 -105 -4z"/>
<path d="M5004 2712 c-8 -6 -12 -207 -5 -269 1 -10 28 -13 101 -13 91 0 100 2
100 19 0 24 -12 28 -87 26 l-63 -1 0 121 c0 109 -2 121 -18 122 -10 1 -23 -2
-28 -5z"/>
<path d="M5390 2707 c-57 -26 -98 -106 -84 -164 10 -40 41 -81 74 -98 64 -33
164 -14 203 40 10 14 21 47 24 74 6 56 -17 105 -64 136 -32 21 -118 27 -153
12z m131 -52 c17 -11 39 -70 34 -95 -8 -44 -16 -56 -42 -71 -58 -33 -136 -5
-151 54 -25 94 74 164 159 112z"/>
<path d="M5748 2626 c-2 -50 -2 -115 0 -144 3 -51 4 -53 30 -50 25 3 27 6 24
41 -4 37 -3 37 35 38 116 2 168 49 144 130 -17 55 -50 71 -147 74 l-83 2 -3
-91z m171 25 c22 -22 18 -67 -9 -81 -16 -8 -68 -15 -98 -11 -9 1 -12 17 -11
56 l2 55 49 0 c34 0 54 -6 67 -19z"/>
<path d="M6133 2711 c-7 -5 -9 -205 -4 -268 1 -10 29 -13 106 -13 102 0 105 1
105 23 0 21 -4 22 -80 22 l-80 0 0 37 c0 41 -7 38 90 42 38 1 45 4 45 21 0 18
-7 20 -68 20 l-67 0 0 37 0 37 77 3 c64 3 77 6 79 21 1 9 -1 18 -4 18 -25 5
-193 4 -199 0z"/>
<path d="M6480 2572 l0 -143 28 3 c24 3 27 7 25 40 -1 40 9 47 58 40 17 -2 34
-17 50 -43 19 -31 30 -39 53 -39 l28 0 -17 28 c-10 15 -24 35 -30 45 -11 15
-8 22 17 48 26 25 29 35 25 71 -5 44 -41 87 -75 89 -9 1 -50 2 -89 3 l-73 2 0
-144z m171 77 c14 -14 18 -27 13 -42 -10 -36 -27 -47 -79 -49 l-49 -3 -2 58
-3 57 50 0 c36 0 54 -5 70 -21z"/>
<path d="M7105 2708 c-37 -21 -46 -60 -22 -99 10 -17 9 -23 -10 -39 -48 -39
-48 -99 -1 -129 28 -17 99 -16 135 3 27 13 31 13 46 -2 26 -25 45 -1 27 33
-11 20 -11 30 -1 51 13 29 10 36 -19 41 -14 2 -20 -3 -20 -15 0 -32 -11 -32
-39 0 l-27 30 28 28 c15 16 28 35 28 43 0 44 -81 80 -125 55z m73 -41 c12 -14
7 -24 -21 -46 -15 -12 -19 -12 -31 5 -27 36 23 76 52 41z m-8 -143 c29 -29 32
-36 20 -44 -18 -11 -71 -13 -86 -2 -22 15 -24 42 -4 62 26 26 29 25 70 -16z"/>
<path d="M7680 2656 c-108 -234 -105 -226 -76 -226 26 0 42 15 48 45 3 18 12
20 77 21 l73 1 16 -34 c12 -26 22 -33 44 -33 24 0 27 3 19 18 -12 23 -78 165
-102 222 -16 38 -24 46 -46 46 -21 0 -30 -9 -53 -60z m100 -106 c0 -10 -50
-17 -77 -10 -21 5 -22 6 -6 40 38 87 34 85 60 29 12 -28 23 -55 23 -59z"/>
<path d="M8008 2706 c-3 -9 -2 -245 1 -268 1 -5 12 -8 26 -8 23 0 25 4 25 40
0 25 5 40 13 41 116 6 130 11 156 53 34 54 6 128 -54 142 -50 12 -164 12 -167
0z m173 -57 c11 -18 11 -50 0 -67 -9 -16 -66 -29 -98 -24 -21 3 -23 9 -23 59
l0 55 56 -4 c33 -3 60 -11 65 -19z"/>
<path d="M8386 2701 c-2 -9 -4 -73 -4 -143 l1 -128 28 0 c24 0 28 4 27 28 -1
57 -1 57 51 55 83 -2 130 34 131 99 0 27 -8 46 -27 68 -27 29 -33 31 -115 34
-74 3 -88 1 -92 -13z m164 -49 c18 -15 21 -24 15 -50 -6 -32 -19 -39 -70 -43
-59 -4 -61 -2 -59 54 1 28 2 53 3 55 1 1 21 2 45 2 27 0 52 -7 66 -18z"/>
<path d="M8957 2706 c-1 -6 -3 -69 -2 -141 l1 -130 94 0 c84 0 99 3 128 24 52
36 70 99 47 164 -23 67 -64 88 -178 91 -55 2 -87 -1 -90 -8z m177 -47 c46 -21
61 -96 29 -145 -18 -28 -42 -36 -105 -39 l-48 -2 0 98 0 99 50 0 c27 0 60 -5
74 -11z"/>
<path d="M9377 2706 c-1 -6 -3 -69 -2 -141 l0 -130 108 -3 c108 -3 108 -3 105
20 -3 22 -7 23 -81 22 l-78 -1 3 41 3 40 66 0 c61 -1 66 0 65 20 -1 18 -8 21
-51 22 -27 1 -58 2 -67 3 -14 1 -18 10 -18 36 l0 35 74 0 c77 0 91 6 76 30
-11 18 -197 23 -203 6z"/>
<path d="M9703 2688 c105 -246 111 -258 138 -258 24 0 31 10 82 128 76 173 72
159 42 158 -24 -2 -32 -13 -73 -109 -25 -59 -49 -103 -52 -99 -4 4 -24 48 -44
97 -44 104 -44 104 -80 111 -26 4 -26 4 -13 -28z"/>
<path d="M10110 2573 l0 -143 103 0 c57 0 106 3 109 6 3 3 4 13 1 23 -4 14
-15 17 -71 16 -86 -3 -92 0 -92 41 0 37 0 38 93 35 45 -1 48 0 45 21 -3 21 -8
23 -68 23 l-65 1 -3 37 -3 37 80 0 c58 0 81 4 81 13 0 27 -19 32 -112 33 l-98
0 0 -143z"/>
<path d="M10466 2711 c-2 -3 -3 -68 -3 -143 l1 -138 102 0 c97 0 103 1 101 20
-1 23 0 22 -87 24 l-64 1 -1 120 c0 118 0 120 -23 121 -12 1 -24 -1 -26 -5z"/>
<path d="M10850 2702 c-50 -24 -79 -75 -76 -133 6 -143 192 -194 280 -76 26
36 27 121 1 161 -37 57 -138 81 -205 48z m143 -57 c68 -68 13 -182 -83 -170
-17 2 -39 10 -47 16 -19 16 -40 60 -38 79 1 8 3 23 3 33 1 10 14 29 28 42 38
35 102 35 137 0z"/>
<path d="M11219 2711 c-4 -20 -4 -258 -1 -268 2 -7 15 -13 28 -13 21 0 24 4
24 40 0 22 3 40 8 40 4 1 30 2 59 4 79 4 105 27 117 102 5 28 -24 71 -56 85
-31 13 -177 21 -179 10z m163 -58 c34 -31 14 -91 -33 -94 -78 -5 -79 -4 -79
56 l0 55 47 0 c29 0 53 -6 65 -17z"/>
<path d="M11597 2707 c-2 -7 -4 -72 -4 -145 l0 -133 26 3 c25 3 26 4 25 91 0
48 1 87 3 87 1 0 16 -24 33 -52 42 -73 65 -102 78 -94 6 3 27 35 46 71 20 35
40 66 44 69 4 2 7 -30 7 -72 -2 -93 1 -102 29 -102 21 0 21 3 21 142 0 138 -1
141 -22 143 -17 1 -32 -17 -75 -91 -29 -51 -56 -90 -59 -88 -4 2 -30 43 -59
92 -49 83 -81 110 -93 79z"/>
<path d="M12063 2573 l0 -143 108 0 c102 0 109 1 109 20 0 22 -2 22 -100 24
l-65 1 1 39 0 39 70 1 c62 1 69 3 69 21 0 18 -7 20 -60 22 -33 0 -65 2 -71 2
-6 1 -10 16 -9 34 l2 32 76 3 c72 3 77 4 77 25 0 22 -3 22 -103 22 l-103 0 -1
-142z"/>
<path d="M12425 2710 c-4 -6 -7 -70 -7 -143 l0 -132 26 -3 25 -3 3 95 3 96 75
-95 c52 -65 82 -94 96 -95 27 0 31 25 24 175 -5 102 -7 110 -25 110 -18 0 -20
-8 -25 -94 l-5 -93 -73 90 c-62 77 -88 102 -107 102 -2 0 -7 -5 -10 -10z"/>
<path d="M12799 2716 c0 -1 -2 -11 -5 -23 -4 -21 0 -23 46 -23 l50 0 0 -120 0
-120 25 0 c28 0 27 -5 27 163 l0 77 49 0 c45 0 49 2 45 22 -3 22 -7 23 -119
23 -65 1 -117 1 -118 1z"/>
</g>
</svg>
